<?xml version="1.0" encoding="utf-8"?>
<!-- Generator: Adobe Illustrator 21.0.1, SVG Export Plug-In . SVG Version: 6.00 Build 0)  -->
<svg version="1.1" id="Laag_1" xmlns="http://www.w3.org/2000/svg" xmlns:xlink="http://www.w3.org/1999/xlink" x="0px" y="0px"
	 viewBox="0 0 1886 595.3" style="enable-background:new 0 0 1886 595.3;" xml:space="preserve">
<style type="text/css">
	.st0{fill:#FFFFFF;}
</style>
<g>
	<g>
		<path class="st0" d="M694.9,304.7l-26.6,27.7v73.7h-28.7v-218h28.7v107.8l23.7-26.3l73.2-81.4h34.7l-85.8,96.3l92.5,121.7h-34.4
			L694.9,304.7z"/>
		<path class="st0" d="M816,323.6c0-11.8,1.7-22.7,5.2-32.7c3.4-10,8.3-18.7,14.7-26.1c6.3-7.4,14-13.2,23.1-17.4
			c9.1-4.2,19.3-6.3,30.5-6.3c11.5,0,21.8,2.1,30.9,6.3c9.1,4.2,16.9,10,23.3,17.4c6.4,7.4,11.3,16.1,14.7,26.1
			c3.4,10,5.1,20.9,5.1,32.7v3.3c0,11.8-1.7,22.7-5.1,32.7c-3.4,10-8.3,18.7-14.7,26c-6.4,7.3-14.1,13.1-23.2,17.2
			c-9.1,4.1-19.3,6.2-30.7,6.2c-11.4,0-21.6-2.1-30.7-6.2c-9.1-4.1-16.8-9.9-23.2-17.2c-6.4-7.3-11.3-16-14.7-26
			c-3.4-10-5.2-20.9-5.2-32.7V323.6z M843.9,326.9c0,8.1,0.9,15.7,2.8,22.9c1.9,7.2,4.8,13.5,8.6,18.9c3.8,5.4,8.6,9.8,14.4,12.9
			c5.7,3.2,12.4,4.8,20.1,4.8c7.6,0,14.3-1.6,20.1-4.8c5.8-3.2,10.6-7.5,14.4-12.9c3.8-5.4,6.7-11.8,8.6-18.9
			c1.9-7.2,2.9-14.8,2.9-22.9v-3.3c0-8-1-15.6-2.9-22.8c-1.9-7.2-4.8-13.6-8.7-19c-3.8-5.4-8.7-9.8-14.4-13
			c-5.8-3.2-12.5-4.9-20.2-4.9c-7.6,0-14.2,1.6-19.9,4.9s-10.5,7.6-14.3,13c-3.8,5.4-6.7,11.8-8.6,19c-1.9,7.2-2.8,14.8-2.8,22.8
			V326.9z"/>
		<path class="st0" d="M1092.5,363.1c0-3-0.4-5.8-1.3-8.5c-0.9-2.6-2.7-5.1-5.3-7.5s-6.4-4.5-11.3-6.5c-4.9-2-11.3-3.8-19.3-5.5
			c-9-1.9-17.1-4.1-24.3-6.7c-7.2-2.6-13.3-5.7-18.3-9.4c-5-3.6-8.9-8-11.6-13c-2.7-5-4-10.8-4-17.5c0-6.4,1.4-12.4,4.3-18.2
			c2.8-5.7,6.9-10.8,12.1-15.1c5.2-4.3,11.5-7.8,18.9-10.3c7.4-2.5,15.6-3.8,24.7-3.8c9.7,0,18.3,1.3,26,4
			c7.6,2.6,14.1,6.3,19.5,10.9c5.3,4.6,9.4,10,12.2,16.1c2.8,6.1,4.2,12.7,4.2,19.7h-27.8c0-3.3-0.7-6.6-2.2-10
			c-1.5-3.3-3.7-6.3-6.6-9c-2.9-2.6-6.4-4.8-10.6-6.4c-4.2-1.6-9-2.5-14.5-2.5c-5.8,0-10.7,0.7-14.7,2c-4,1.4-7.4,3.1-10,5.4
			c-2.6,2.2-4.5,4.8-5.7,7.6c-1.2,2.8-1.8,5.8-1.8,8.8s0.5,5.7,1.5,8.1c1,2.4,2.9,4.6,5.7,6.5c2.8,1.9,6.6,3.7,11.5,5.4
			c4.8,1.6,11.1,3.3,18.8,5c9.9,2.3,18.5,4.9,25.7,7.8c7.3,2.9,13.3,6.3,18.1,10.1c4.8,3.8,8.4,8.3,10.7,13.3
			c2.3,5,3.5,10.8,3.5,17.4c0,7.1-1.5,13.6-4.4,19.5c-2.9,5.9-7.2,10.9-12.6,15.1c-5.5,4.2-12.1,7.5-19.8,9.8
			c-7.7,2.3-16.2,3.5-25.6,3.5c-10.8,0-20.3-1.5-28.5-4.5s-15.1-7-20.7-11.9c-5.6-4.9-9.8-10.6-12.7-16.9
			c-2.9-6.3-4.3-12.8-4.3-19.5h27.7c0.3,5.7,1.7,10.5,4.1,14.3c2.4,3.8,5.5,7,9.2,9.4c3.7,2.4,7.7,4.1,12.1,5.1
			c4.4,1,8.8,1.5,13.2,1.5c5.7,0,10.7-0.6,15-1.8c4.3-1.2,7.9-2.8,10.9-4.9c2.9-2.1,5.2-4.6,6.7-7.4
			C1091.8,369.5,1092.5,366.4,1092.5,363.1z"/>
		<path class="st0" d="M1201.5,331.1l-17.4,18.1v56.9h-27.7V176.2h27.7v139.1l14.8-17.8l50.4-53.3h33.7l-63,67.7l70.4,94.3h-32.5
			L1201.5,331.1z"/>
		<path class="st0" d="M1411.7,406.1c-1-2-1.8-4.5-2.4-7.6s-1.1-6.2-1.5-9.5c-2.6,2.7-5.5,5.3-8.8,7.7c-3.2,2.4-6.8,4.6-10.6,6.4
			c-3.8,1.8-8,3.3-12.5,4.3c-4.5,1.1-9.2,1.6-14.2,1.6c-8.3,0-15.8-1.2-22.5-3.7c-6.7-2.5-12.5-5.9-17.2-10.2
			c-4.7-4.3-8.4-9.4-11-15.2c-2.6-5.8-3.9-12.1-3.9-18.8c0-8.7,1.7-16.3,5.1-23c3.4-6.6,8.3-12.2,14.6-16.7s14-7.9,23-10.2
			c9-2.3,19-3.4,30.1-3.4h27.5v-12.7c0-9.7-2.9-17.4-8.7-23.1c-5.8-5.7-14.3-8.6-25.6-8.6c-5.2,0-9.9,0.7-14.2,2.1
			c-4.3,1.4-8,3.3-11,5.6c-3,2.3-5.4,5.1-7.1,8.2c-1.7,3.1-2.5,6.3-2.5,9.7h-27.8c0-5.8,1.5-11.5,4.6-17.2c3-5.7,7.4-10.8,13-15.3
			c5.6-4.5,12.3-8.2,20.3-11.1c7.9-2.8,16.8-4.3,26.6-4.3c8.8,0,16.9,1.1,24.3,3.4c7.4,2.2,13.8,5.6,19.1,10.2
			c5.3,4.5,9.4,10.2,12.4,17c3,6.8,4.5,14.7,4.5,23.8v75.3c0,5.5,0.5,11.2,1.4,17.3s2.4,11.3,4.3,15.6v2.4H1411.7z M1365.7,385
			c5,0,9.7-0.7,14.1-2.1c4.4-1.4,8.4-3.2,12-5.5c3.6-2.2,6.7-4.8,9.4-7.7c2.6-2.9,4.7-5.9,6.2-9v-33.2h-23.1
			c-15.9,0-28.1,2.5-36.7,7.4c-8.6,4.9-12.9,12.4-12.9,22.4c0,3.9,0.6,7.5,1.9,10.9c1.3,3.4,3.3,6.3,5.9,8.8
			c2.6,2.4,5.9,4.4,9.7,5.8C1356.2,384.3,1360.6,385,1365.7,385z"/>
		<path class="st0" d="M1504.5,244.1l0.7,18c5.6-6.6,12.3-11.7,20.3-15.4c7.9-3.7,17.2-5.5,27.8-5.5c10.5,0,19.7,2.1,27.8,6.2
			c8,4.1,14.2,10.8,18.5,19.8c5.4-7.8,12.4-14.1,21-18.9c8.6-4.8,18.8-7.2,30.6-7.2c8.7,0,16.4,1.1,23.1,3.4
			c6.7,2.2,12.4,5.8,17,10.6c4.6,4.8,8.2,10.9,10.6,18.3c2.4,7.4,3.6,16.2,3.6,26.3v106.4h-27.7V299.5c0-6.8-0.8-12.4-2.5-16.9
			c-1.7-4.5-4-8.1-7-10.8c-3-2.7-6.6-4.6-10.9-5.6c-4.3-1-9-1.6-14.2-1.6c-5.7,0-10.7,0.9-15.1,2.7c-4.4,1.8-8.2,4.2-11.3,7.3
			c-3.1,3-5.6,6.6-7.5,10.8c-1.8,4.1-3,8.6-3.5,13.3v107.5h-27.8V299.7c0-6.3-0.8-11.7-2.5-16.1c-1.6-4.4-4-8.1-7-10.9
			c-3-2.8-6.6-4.8-10.9-6.1c-4.2-1.3-9-1.9-14.3-1.9c-9.9,0-17.8,2.1-23.8,6.4c-6,4.3-10.5,9.9-13.5,16.8v118.3h-27.7v-162H1504.5z"
			/>
		<path class="st0" d="M1884,326.9c0,11.9-1.4,22.8-4.2,32.9c-2.8,10-6.9,18.7-12.2,26c-5.3,7.3-11.9,13-19.7,17.1
			s-16.7,6.1-26.6,6.1c-10.2,0-19.1-1.6-26.7-4.8c-7.6-3.2-14.2-7.8-19.7-13.9v78h-27.7V244.1h25.3l1.3,18
			c5.5-6.8,12.1-12,19.9-15.6c7.8-3.6,16.8-5.4,27.1-5.4c10.2,0,19.2,2,27,6c7.8,4,14.4,9.6,19.8,16.8c5.4,7.2,9.5,15.9,12.2,26
			c2.7,10.1,4.1,21.4,4.1,33.8V326.9z M1856.3,323.8c0-8.1-0.9-15.7-2.5-22.8c-1.7-7.1-4.3-13.4-7.9-18.8
			c-3.6-5.4-8.1-9.7-13.6-12.8c-5.5-3.1-12-4.7-19.6-4.7c-4.7,0-9,0.6-12.8,1.6c-3.8,1.1-7.3,2.6-10.4,4.6c-3.1,2-5.8,4.4-8.2,7.1
			c-2.4,2.7-4.5,5.7-6.3,8.9v77.4c1.8,3.2,3.9,6.2,6.3,8.9c2.4,2.7,5.1,5.1,8.2,7c3.1,1.9,6.6,3.5,10.5,4.6c3.9,1.1,8.2,1.6,13,1.6
			c7.5,0,13.9-1.6,19.4-4.8c5.4-3.2,10-7.5,13.5-12.9c3.6-5.4,6.2-11.7,7.9-18.9c1.7-7.2,2.5-14.9,2.5-23V323.8z"/>
	</g>
	<g>
		<path class="st0" d="M407.1,3.2l-23.7,0c8,2.4,15.9,5.1,23.7,8.1L407.1,3.2z"/>
		<path class="st0" d="M437.8,3.2l-23.3,0l0,11c7.9,3.3,15.7,7,23.3,10.9L437.8,3.2z"/>
		<path class="st0" d="M475.3,3.2l-26.1,0l0,28.1c9,5.2,17.7,10.8,26.1,16.9L475.3,3.2z"/>
		<path class="st0" d="M515.6,3.2l-30.7,0l0,52.2c10.8,8.5,21.1,17.6,30.7,27.5L515.6,3.2z"/>
		<path class="st0" d="M550.9,3.2l-23.3,0l0,92.6c8.4,9.6,16.2,19.7,23.3,30.3L550.9,3.2z"/>
		<polygon class="st0" points="587.8,3.2 564,3.2 563.9,143.1 587.8,143.1 		"/>
		<polygon class="st0" points="603.1,143.1 624.1,143.1 624.2,3.3 603.2,3.2 		"/>
		<rect x="645.2" y="3.3" class="st0" width="18.8" height="139.8"/>
		<rect x="685.6" y="3.3" class="st0" width="12.5" height="139.8"/>
		<rect x="725.9" y="3.3" class="st0" width="9.1" height="139.8"/>
		<rect x="764" y="3.3" class="st0" width="9.1" height="139.8"/>
		<rect x="839.6" y="3.4" class="st0" width="6.3" height="139.8"/>
		<rect x="801.5" y="3.3" class="st0" width="7.4" height="139.8"/>
		<path class="st0" d="M407,592.2l0-8.5c-8.2,3.2-16.6,6-25.1,8.5L407,592.2z"/>
		<path class="st0" d="M414.4,592.2l23.3,0l0-22.3c-7.6,4-15.4,7.6-23.3,10.9L414.4,592.2z"/>
		<path class="st0" d="M449.1,592.2l26.1,0l0-45.4c-8.4,6-17.1,11.7-26.1,16.9L449.1,592.2z"/>
		<path class="st0" d="M484.9,592.2l30.7,0l0-80.1c-9.6,9.8-19.8,19-30.7,27.4L484.9,592.2z"/>
		<path class="st0" d="M527.5,499.2l0,93l23.3,0l-0.1-123.2C543.7,479.5,535.9,489.6,527.5,499.2z"/>
		<polygon class="st0" points="563.9,452.2 563.9,592.1 587.8,592.1 587.7,452.2 		"/>
		<polygon class="st0" points="603.1,452.2 603.1,592.1 624.2,592.1 624.1,452.2 		"/>
		<rect x="645.2" y="452.2" class="st0" width="18.8" height="139.8"/>
		<rect x="685.5" y="452.2" class="st0" width="12.5" height="139.8"/>
		<rect x="725.9" y="452.2" class="st0" width="9.1" height="139.8"/>
		<rect x="764" y="452.2" class="st0" width="9.1" height="139.8"/>
		<rect x="839.6" y="452.2" class="st0" width="6.3" height="139.8"/>
		<rect x="801.5" y="452.2" class="st0" width="7.4" height="139.8"/>
		<path class="st0" d="M296.2,3.1C133.7,3.1,1.9,134.8,1.9,297.4c0,162.5,131.8,294.3,294.3,294.3c162.5,0,294.3-131.8,294.3-294.3
			C590.5,134.8,458.7,3.1,296.2,3.1z M296.2,446.8c-82.5,0-149.4-66.9-149.4-149.4S213.7,148,296.2,148s149.4,66.9,149.4,149.4
			S378.7,446.8,296.2,446.8z"/>
	</g>
</g>
</svg>
